HIERARCHY
ROOT hip
{
  OFFSET 0 0 0
  CHANNELS 6 Xposition Yposition Zposition Zrotation Yrotation Xrotation
  JOINT abdomen
  {
    OFFSET 0 20.6881 -0.73152
    CHANNELS 3 Zrotation Xrotation Yrotation
    JOINT chest
    {
      OFFSET 0 11.7043 -0.48768
      CHANNELS 3 Zrotation Xrotation Yrotation
      JOINT neck
      {
        OFFSET 0 22.1894 -2.19456
        CHANNELS 3 Zrotation Xrotation Yrotation
        JOINT head
        {
          OFFSET -0.24384 7.07133 1.2192
          CHANNELS 3 Zrotation Xrotation Yrotation
          JOINT leftEye
          {
            OFFSET 4.14528 8.04674 8.04672
            CHANNELS 3 Zrotation Xrotation Yrotation
            End Site
            {
              OFFSET 1 0 0
            }
          }
          JOINT rightEye
          {
            OFFSET -3.6576 8.04674 8.04672
            CHANNELS 3 Zrotation Xrotation Yrotation
            End Site
            {
              OFFSET 1 0 0
            }
          }
        }
      }
      JOINT rCollar
      {
        OFFSET -2.68224 19.2634 -4.8768
        CHANNELS 3 Zrotation Xrotation Yrotation
        JOINT rShldr
        {
          OFFSET -8.77824 -1.95073 1.46304
          CHANNELS 3 Zrotation Xrotation Yrotation
          JOINT rForeArm
          {
            OFFSET -28.1742 -1.7115 0.48768
            CHANNELS 3 Zrotation Xrotation Yrotation
            JOINT rHand
            {
              OFFSET -22.5879 0.773209 7.07136
              CHANNELS 3 Zrotation Xrotation Yrotation
              JOINT rThumb1
              {
                OFFSET -1.2192 -0.487915 3.41376
                CHANNELS 3 Zrotation Xrotation Yrotation
                JOINT rThumb2
                {
                  OFFSET -3.37035 -0.52449 3.41376
                  CHANNELS 3 Zrotation Xrotation Yrotation
                  End Site
                  {
                    OFFSET -1.78271 -1.18214 1.43049
                  }
                }
              }
              JOINT rIndex1
              {
                OFFSET -7.75947 0.938293 5.60832
                CHANNELS 3 Zrotation Xrotation Yrotation
                JOINT rIndex2
                {
                  OFFSET -2.54057 -0.884171 1.56538
                  CHANNELS 3 Zrotation Xrotation Yrotation
                  End Site
                  {
                    OFFSET -1.62519 -0.234802 1.16502
                  }
                }
              }
              JOINT rMid1
              {
                OFFSET -8.24714 1.18213 3.41376
                CHANNELS 3 Zrotation Xrotation Yrotation
                JOINT rMid2
                {
                  OFFSET -3.10165 -0.590103 1.0647
                  CHANNELS 3 Zrotation Xrotation Yrotation
                  End Site
                  {
                    OFFSET -2.48547 -0.328903 0.83742
                  }
                }
              }
              JOINT rRing1
              {
                OFFSET -8.82822 0.546677 1.51678
                CHANNELS 3 Zrotation Xrotation Yrotation
                JOINT rRing2
                {
                  OFFSET -2.60934 -0.819778 -0.0198488
                  CHANNELS 3 Zrotation Xrotation Yrotation
                  End Site
                  {
                    OFFSET -2.33842 -0.294052 0.168128
                  }
                }
              }
              JOINT rPinky1
              {
                OFFSET -8.27202 -0.0477905 -0.4584
                CHANNELS 3 Zrotation Xrotation Yrotation
                JOINT rPinky2
                {
                  OFFSET -1.82734 -0.647385 -0.700984
                  CHANNELS 3 Zrotation Xrotation Yrotation
                  End Site
                  {
                    OFFSET -1.69225 -0.51767 -0.607171
                  }
                }
              }
            }
          }
        }
      }
      JOINT lCollar
      {
        OFFSET 2.68224 19.2634 -4.8768
        CHANNELS 3 Zrotation Xrotation Yrotation
        JOINT lShldr
        {
          OFFSET 8.77824 -1.95073 1.46304
          CHANNELS 3 Zrotation Xrotation Yrotation
          JOINT lForeArm
          {
            OFFSET 28.1742 -1.7115 0.48768
            CHANNELS 3 Zrotation Xrotation Yrotation
            JOINT lHand
            {
              OFFSET 22.5879 0.773209 7.07136
              CHANNELS 3 Zrotation Xrotation Yrotation
              JOINT lThumb1
              {
                OFFSET 1.2192 -0.487915 3.41376
                CHANNELS 3 Zrotation Xrotation Yrotation
                JOINT lThumb2
                {
                  OFFSET 3.37035 -0.52449 3.41376
                  CHANNELS 3 Zrotation Xrotation Yrotation
                  End Site
                  {
                    OFFSET 1.78271 -1.18214 1.43049
                  }
                }
              }
              JOINT lIndex1
              {
                OFFSET 7.75947 0.938293 5.60832
                CHANNELS 3 Zrotation Xrotation Yrotation
                JOINT lIndex2
                {
                  OFFSET 2.54057 -0.884171 1.56538
                  CHANNELS 3 Zrotation Xrotation Yrotation
                  End Site
                  {
                    OFFSET 1.62519 -0.234802 1.16502
                  }
                }
              }
              JOINT lMid1
              {
                OFFSET 8.24714 1.18213 3.41376
                CHANNELS 3 Zrotation Xrotation Yrotation
                JOINT lMid2
                {
                  OFFSET 3.10165 -0.590103 1.0647
                  CHANNELS 3 Zrotation Xrotation Yrotation
                  End Site
                  {
                    OFFSET 2.48547 -0.328903 0.83742
                  }
                }
              }
              JOINT lRing1
              {
                OFFSET 8.82822 0.546677 1.51678
                CHANNELS 3 Zrotation Xrotation Yrotation
                JOINT lRing2
                {
                  OFFSET 2.60934 -0.819778 -0.0198488
                  CHANNELS 3 Zrotation Xrotation Yrotation
                  End Site
                  {
                    OFFSET 2.33842 -0.294052 0.168128
                  }
                }
              }
              JOINT lPinky1
              {
                OFFSET 8.27202 -0.0477905 -0.4584
                CHANNELS 3 Zrotation Xrotation Yrotation
                JOINT lPinky2
                {
                  OFFSET 1.82734 -0.647385 -0.700984
                  CHANNELS 3 Zrotation Xrotation Yrotation
                  End Site
                  {
                    OFFSET 1.69225 -0.51767 -0.607171
                  }
                }
              }
            }
          }
        }
      }
    }
  }
  JOINT rButtock
  {
    OFFSET -8.77824 4.35084 1.2192
    CHANNELS 3 Zrotation Xrotation Yrotation
    JOINT rThigh
    {
      OFFSET 0 -1.70687 -2.19456
      CHANNELS 3 Zrotation Xrotation Yrotation
      JOINT rShin
      {
        OFFSET 0 -36.8199 0.73152
        CHANNELS 3 Zrotation Xrotation Yrotation
        JOINT rFoot
        {
          OFFSET 0.73152 -45.1104 -5.12064
          CHANNELS 3 Zrotation Xrotation Yrotation
          End Site
          {
            OFFSET -1.1221 -3.69964 12.103
          }
        }
      }
    }
  }
  JOINT lButtock
  {
    OFFSET 8.77824 4.35084 1.2192
    CHANNELS 3 Zrotation Xrotation Yrotation
    JOINT lThigh
    {
      OFFSET 0 -1.70687 -2.19456
      CHANNELS 3 Zrotation Xrotation Yrotation
      JOINT lShin
      {
        OFFSET 0 -36.8199 0.73152
        CHANNELS 3 Zrotation Xrotation Yrotation
        JOINT lFoot
        {
          OFFSET -0.73152 -45.1104 -5.12064
          CHANNELS 3 Zrotation Xrotation Yrotation
          End Site
          {
            OFFSET 1.1221 -3.69964 12.103
          }
        }
      }
    }
  }
}
MOTION
Frames:	9
Frame Time:	0.00833333
252.499 58.8333 105.321 368.044 -55.4578 363.343 -6.70003 3.07193 16.1227 -4.14945 -11.0036 4.0318 -1.1694 -0.0178713 -5.79414 0.690747 -18.1124 -11.1841 -0.0 0.0 0.0 -0.0 0.0 0.0 1.45844e-13 1.75144e-13 3.86559e-13 24.9651 52.4787 25.0569 -27.5482 -42.2308 88.1377 -0.0129336 2.83582 0.396865 6.22799e-10 1.34694e-08 2.58126e-10 1.0692e-09 2.32029e-08 4.45132e-10 6.22805e-10 1.34694e-08 2.58118e-10 7.73091 5.47488 0.417314 6.228e-10 1.34694e-08 2.58121e-10 2.90554 0.965183 0.102902 6.22811e-10 1.34694e-08 2.58121e-10 10.2786 0.731801 0.0259123 6.22794e-10 1.34693e-08 2.58129e-10 2.22167 -0.733487 -0.20892 1.45692e-13 1.75145e-13 3.86385e-13 -44.7323 21.9481 -10.0855 28.4223 -36.8204 -78.3261 3.28279 -44.6239 7.97606 -2.49641e-09 4.14875e-09 -1.0241e-09 -4.27306e-09 6.82942e-09 -1.85472e-09 -2.49641e-09 4.14873e-09 -1.0241e-09 -7.73091 5.47488 -0.417314 -2.49641e-09 4.14875e-09 -1.0241e-09 -2.90554 0.965183 -0.102902 -2.49641e-09 4.14874e-09 -1.0241e-09 -10.2786 0.731801 -0.0259123 -2.4964e-09 4.14874e-09 -1.02411e-09 -2.22167 -0.733487 0.20892 -2.03217e-16 0.0 -3.88251e-19 -50.1382 -48.8056 -33.2065 -176.95 68.6658 -179.61 1.2989 -16.2097 -3.62609 2.03217e-16 0.0 3.88251e-19 19.3115 -25.5092 11.2304 0.513485 48.7617 -1.10397 -2.34517 -26.3825 -1.31406
251.302 59.3196 104.952 367.876 -55.3068 363.43 -6.52834 3.02291 15.5881 -4.10244 -11.169 3.87406 -1.48831 0.352286 -6.33839 1.21922 -18.5165 -12.1076 -0.0 0.0 0.0 -0.0 0.0 0.0 3.79247e-14 1.80761e-13 2.50326e-13 26.6937 50.2743 22.99 -27.6476 -41.8477 87.4303 -0.00651307 0.386743 0.0522381 1.13697e-10 1.07975e-08 5.65987e-10 1.92349e-10 1.86406e-08 9.77487e-10 1.13703e-10 1.07975e-08 5.6598e-10 7.73091 5.47488 0.417314 1.13698e-10 1.07975e-08 5.65981e-10 2.90554 0.965183 0.102902 1.13713e-10 1.07975e-08 5.6598e-10 10.2786 0.731801 0.0259123 1.13693e-10 1.07975e-08 5.6599e-10 2.22167 -0.733487 -0.20892 3.76722e-14 1.80763e-13 2.50108e-13 -43.1989 22.8161 -9.67694 28.3574 -37.7908 -80.0064 2.83714 -42.2009 7.3257 -1.56778e-09 1.10166e-09 -1.46584e-09 -2.66202e-09 1.69e-09 -2.57667e-09 -1.56778e-09 1.10163e-09 -1.46583e-09 -7.73091 5.47488 -0.417314 -1.56778e-09 1.10166e-09 -1.46583e-09 -2.90554 0.965183 -0.102902 -1.56779e-09 1.10165e-09 -1.46584e-09 -10.2786 0.731801 -0.0259123 -1.56777e-09 1.10165e-09 -1.46585e-09 -2.22167 -0.733487 0.20892 -2.03217e-16 0.0 -3.88251e-19 -51.227 -49.339 -33.3266 -176.839 69.8344 -179.726 1.68104 -15.0809 -2.75128 2.03217e-16 0.0 3.88251e-19 19.4443 -23.5601 10.5639 0.429998 46.156 -1.03555 -2.28647 -25.4563 -0.962638
250.042 59.8649 104.567 367.615 -55.177 363.592 -6.28033 2.88597 15.006 -4.03152 -11.3022 3.70742 -1.80622 0.692298 -6.8675 1.72382 -18.8036 -13.0077 -0.0 0.0 0.0 -0.0 0.0 0.0 -2.9668e-14 1.39147e-13 1.2096e-13 27.9261 47.866 21.3577 -27.8107 -41.3145 86.3112 -0.00657699 -2.31494 -0.325522 -1.19998e-10 8.48309e-09 8.30561e-10 -2.10912e-10 1.46867e-08 1.43692e-09 -1.1999e-10 8.48309e-09 8.30554e-10 7.73091 5.47488 0.417314 -1.19996e-10 8.48308e-09 8.30554e-10 2.90554 0.965183 0.102902 -1.19979e-10 8.48308e-09 8.30553e-10 10.2786 0.731801 0.0259123 -1.2e-10 8.48308e-09 8.30564e-10 2.22167 -0.733487 -0.20892 -2.99693e-14 1.3915e-13 1.20712e-13 -41.6111 23.8221 -9.28076 28.2587 -38.7214 -81.6597 2.39703 -39.5402 6.66238 -7.43846e-10 -8.27649e-10 -1.33286e-09 -1.24325e-09 -1.53683e-09 -2.31597e-09 -7.43847e-10 -8.27679e-10 -1.33285e-09 -7.73091 5.47488 -0.417314 -7.43846e-10 -8.27655e-10 -1.33285e-09 -2.90554 0.965183 -0.102902 -7.43853e-10 -8.27658e-10 -1.33286e-09 -10.2786 0.731801 -0.0259123 -7.43834e-10 -8.27659e-10 -1.33287e-09 -2.22167 -0.733487 0.20892 -2.03217e-16 0.0 -3.88251e-19 -51.9448 -49.7553 -33.2396 -176.684 71.2942 -179.9 1.98379 -13.8627 -2.00201 2.03217e-16 0.0 3.88251e-19 19.5397 -21.5028 9.74674 0.352031 43.3904 -0.97226 -2.18725 -24.1903 -0.515948
248.724 60.4619 104.166 367.265 -55.0593 363.835 -5.928 2.65527 14.3721 -3.95878 -11.4078 3.52913 -2.13081 1.00312 -7.38485 2.22759 -18.9508 -13.8843 -0.0 0.0 0.0 -0.0 0.0 0.0 -3.11313e-14 1.11471e-14 -4.94162e-14 28.7418 45.265 20.0854 -27.9796 -40.5336 84.9056 -0.0256083 -5.35735 -0.753912 2.52207e-10 6.64853e-09 1.22675e-09 4.25108e-10 1.15628e-08 2.13077e-09 2.52214e-10 6.64853e-09 1.22675e-09 7.73091 5.47488 0.417314 2.52208e-10 6.64852e-09 1.22675e-09 2.90554 0.965183 0.102902 2.52224e-10 6.64852e-09 1.22675e-09 10.2786 0.731801 0.0259123 2.52204e-10 6.64853e-09 1.22676e-09 2.22167 -0.733487 -0.20892 -3.14017e-14 1.11488e-14 -4.96752e-14 -39.9727 24.9914 -8.85476 28.1365 -39.6414 -83.2779 1.96619 -36.553 5.97471 2.74903e-11 -1.03825e-09 6.82433e-11 6.2084e-11 -1.80924e-09 1.22244e-10 2.74888e-11 -1.03827e-09 6.825e-11 -7.73091 5.47488 -0.417314 2.74938e-11 -1.03826e-09 6.82441e-11 -2.90554 0.965183 -0.102902 2.74835e-11 -1.03825e-09 6.82433e-11 -10.2786 0.731801 -0.0259123 2.75007e-11 -1.03825e-09 6.82332e-11 -2.22167 -0.733487 0.20892 -2.03217e-16 0.0 -3.88251e-19 -52.2497 -50.0583 -32.9314 -176.45 73.0611 179.836 2.21269 -12.5378 -1.36805 2.03217e-16 0.0 3.88251e-19 19.6125 -19.2955 8.7541 0.277302 40.4254 -0.912183 -2.04502 -22.5735 0.0576175
247.37 61.0258 103.741 366.848 -54.9365 364.149 -5.48547 2.34135 13.6891 -3.8903 -11.4928 3.33863 -2.45847 1.29526 -7.89636 2.74824 -18.9757 -14.7447 -0.0 0.0 0.0 -0.0 0.0 0.0 4.74406e-15 -1.75605e-13 -2.52137e-13 29.2163 42.4676 19.1157 -28.1139 -39.5177 83.3075 -0.0833736 -8.7017 -1.23275 1.02178e-09 4.94165e-09 1.75319e-09 1.74277e-09 8.66391e-09 3.05429e-09 1.02179e-09 4.94166e-09 1.75319e-09 7.73091 5.47488 0.417314 1.02178e-09 4.94165e-09 1.75319e-09 2.90554 0.965183 0.102902 1.0218e-09 4.94165e-09 1.75319e-09 10.2786 0.731801 0.0259123 1.02178e-09 4.94165e-09 1.7532e-09 2.22167 -0.733487 -0.20892 4.55564e-15 -1.75605e-13 -2.52394e-13 -38.2753 26.3135 -8.39731 27.9811 -40.5666 -84.9086 1.57397 -33.2992 5.28903 7.86273e-10 -1.89884e-10 2.34035e-09 1.33017e-09 -2.68532e-10 4.0566e-09 7.8627e-10 -1.89901e-10 2.34036e-09 -7.73091 5.47488 -0.417314 7.86282e-10 -1.89895e-10 2.34035e-09 -2.90554 0.965183 -0.102902 7.86268e-10 -1.8989e-10 2.34036e-09 -10.2786 0.731801 -0.0259123 7.8628e-10 -1.89888e-10 2.34035e-09 -2.22167 -0.733487 0.20892 -2.03217e-16 0.0 -3.88251e-19 -52.1565 -50.2615 -32.4033 -176.082 75.1495 179.425 2.37681 -11.0971 -0.828083 2.03217e-16 0.0 3.88251e-19 19.7038 -16.9163 7.61145 0.205316 37.2456 -0.856186 -1.87549 -20.6568 0.769495
245.958 61.6894 103.299 366.389 -54.7966 364.521 -5.01828 1.94599 12.9657 -3.77089 -11.5417 3.14263 -2.77866 1.55888 -8.38997 3.24358 -18.9222 -15.5749 -0.0 0.0 0.0 -0.0 0.0 0.0 4.14951e-14 -3.53733e-13 -3.85977e-13 29.327 39.5214 18.5088 -28.2443 -38.3609 81.3565 -0.181084 -12.1765 -1.73952 1.60152e-09 3.35114e-09 2.01737e-09 2.7375e-09 5.94498e-09 3.51954e-09 1.60153e-09 3.35114e-09 2.01736e-09 7.73091 5.47488 0.417314 1.60152e-09 3.35114e-09 2.01737e-09 2.90554 0.965183 0.102902 1.60153e-09 3.35114e-09 2.01737e-09 10.2786 0.731801 0.0259123 1.60152e-09 3.35114e-09 2.01738e-09 2.22167 -0.733487 -0.20892 4.13985e-14 -3.53735e-13 -3.86229e-13 -36.527 27.7405 -8.00342 27.7903 -41.4509 -86.5196 1.23657 -29.9301 4.63634 1.38524e-09 8.60154e-10 4.22115e-09 2.32652e-09 1.59712e-09 7.3097e-09 1.38524e-09 8.60146e-10 4.22115e-09 -7.73091 5.47488 -0.417314 1.38526e-09 8.60141e-10 4.22114e-09 -2.90554 0.965183 -0.102902 1.38524e-09 8.6015e-10 4.22115e-09 -10.2786 0.731801 -0.0259123 1.38525e-09 8.60154e-10 4.22115e-09 -2.22167 -0.733487 0.20892 -2.03217e-16 0.0 -3.88251e-19 -51.7353 -50.3402 -31.6685 -175.514 77.5114 178.805 2.47698 -9.59248 -0.413291 2.03217e-16 0.0 3.88251e-19 19.844 -14.4564 6.38149 0.140924 33.9514 -0.80735 -1.74357 -18.4241 1.51601
244.507 62.3761 102.837 365.907 -54.6323 364.937 -4.592 1.47108 12.211 -3.54511 -11.5387 2.9479 -3.08133 1.7842 -8.85353 3.66856 -18.8337 -16.3622 -0.0 0.0 0.0 -0.0 0.0 0.0 4.26589e-14 -4.55862e-13 -3.49712e-13 29.0749 36.4768 18.3101 -28.3949 -37.1163 78.8934 -0.308517 -15.6104 -2.25043 1.40422e-09 1.86567e-09 1.62677e-09 2.40473e-09 3.36091e-09 2.8386e-09 1.40422e-09 1.86567e-09 1.62676e-09 7.73091 5.47488 0.417314 1.40422e-09 1.86567e-09 1.62677e-09 2.90554 0.965183 0.102902 1.40422e-09 1.86567e-09 1.62677e-09 10.2786 0.731801 0.0259123 1.40421e-09 1.86567e-09 1.62678e-09 2.22167 -0.733487 -0.20892 4.26225e-14 -4.55864e-13 -3.4996e-13 -34.7233 29.2243 -7.77316 27.572 -42.2529 -88.0629 0.954232 -26.5983 4.03538 1.67715e-09 1.25458e-09 4.4483e-09 2.8166e-09 2.29954e-09 7.70413e-09 1.67714e-09 1.25458e-09 4.4483e-09 -7.73091 5.47488 -0.417314 1.67716e-09 1.25457e-09 4.44829e-09 -2.90554 0.965183 -0.102902 1.67714e-09 1.25458e-09 4.4483e-09 -10.2786 0.731801 -0.0259123 1.67715e-09 1.25458e-09 4.4483e-09 -2.22167 -0.733487 0.20892 -2.03217e-16 0.0 -3.88251e-19 -51.062 -50.2685 -30.7453 -174.599 80.0983 177.833 2.51976 -8.0758 -0.154005 2.03217e-16 0.0 3.88251e-19 20.0458 -12.0115 5.11802 0.0876927 30.6431 -0.767706 -1.7006 -15.8611 2.20028
243.017 63.0859 102.352 365.417 -54.4278 365.385 -4.20216 0.898064 11.4175 -3.17352 -11.4702 2.75702 -3.38195 1.96517 -9.29 3.99873 -18.7058 -17.1137 -0.0 0.0 0.0 -0.0 0.0 0.0 -1.7838e-14 -4.59437e-13 2.2543e-14 28.4512 33.3672 18.5145 -28.5037 -35.509 75.8933 -0.463411 -18.8838 -2.75695 -2.80282e-10 2.83393e-10 -6.71458e-11 -4.66152e-10 5.20614e-10 -1.23948e-10 -2.80277e-10 2.83393e-10 -6.71558e-11 7.73091 5.47488 0.417314 -2.80282e-10 2.83389e-10 -6.71496e-11 2.90554 0.965183 0.102902 -2.80278e-10 2.83389e-10 -6.71475e-11 10.2786 0.731801 0.0259123 -2.8029e-10 2.83392e-10 -6.71414e-11 2.22167 -0.733487 -0.20892 -1.78602e-14 -4.59438e-13 2.22945e-14 -32.8991 30.7767 -7.68349 27.345 -42.9895 -89.502 0.704773 -23.2284 3.45801 1.51397e-09 5.49096e-10 1.68832e-09 2.56028e-09 1.05223e-09 2.93536e-09 1.51397e-09 5.49088e-10 1.68833e-09 -7.73091 5.47488 -0.417314 1.51399e-09 5.49085e-10 1.68832e-09 -2.90554 0.965183 -0.102902 1.51397e-09 5.49096e-10 1.68833e-09 -10.2786 0.731801 -0.0259123 1.51397e-09 5.49099e-10 1.68832e-09 -2.22167 -0.733487 0.20892 -2.03217e-16 0.0 -3.88251e-19 -50.1481 -50.0144 -29.6581 -172.815 82.9403 175.989 2.51061 -6.49524 -0.0813186 2.03217e-16 0.0 3.88251e-19 20.2803 -9.52236 3.72003 0.0429056 27.2405 -0.732908 -1.77721 -12.8475 2.71492
241.496 63.8162 101.845 364.934 -54.176 365.859 -3.82933 0.230955 10.5846 -2.69295 -11.3477 2.56634 -3.68183 2.1084 -9.70365 4.26612 -18.5224 -17.8318 -0.0 0.0 0.0 -0.0 0.0 0.0 -1.15099e-13 -4.01922e-13 6.30505e-13 27.5757 30.1805 19.0394 -28.4256 -33.4411 72.6444 -0.653302 -22.1115 -3.28167 -2.95428e-09 -1.32338e-09 -2.67375e-09 -5.02512e-09 -2.4255e-09 -4.68388e-09 -2.95427e-09 -1.32338e-09 -2.67376e-09 7.73091 5.47488 0.417314 -2.95428e-09 -1.32338e-09 -2.67376e-09 2.90554 0.965183 0.102902 -2.95427e-09 -1.32339e-09 -2.67375e-09 10.2786 0.731801 0.0259123 -2.95429e-09 -1.32338e-09 -2.67375e-09 2.22167 -0.733487 -0.20892 -1.15129e-13 -4.0192e-13 6.30256e-13 -31.0286 32.4144 -7.70653 27.1157 -43.6914 -90.8465 0.492182 -19.7785 2.894 1.0105e-09 -7.27184e-10 -3.05324e-09 1.74183e-09 -1.22123e-09 -5.2607e-09 1.0105e-09 -7.272e-10 -3.05324e-09 -7.73091 5.47488 -0.417314 1.01051e-09 -7.2719e-10 -3.05324e-09 -2.90554 0.965183 -0.102902 1.0105e-09 -7.27183e-10 -3.05324e-09 -10.2786 0.731801 -0.0259123 1.01051e-09 -7.27181e-10 -3.05325e-09 -2.22167 -0.733487 0.20892 -2.03217e-16 0.0 -3.88251e-19 -48.9823 -49.5882 -28.4113 -167.875 86.0315 170.986 2.46673 -4.8457 -0.167605 2.03217e-16 0.0 3.88251e-19 20.5839 -6.96667 2.19178 0.00452922 23.7259 -0.702472 -1.94151 -9.43219 3.14878
